<svg width="24" height="25" viewBox="0 0 24 25" fill="none" xmlns="http://www.w3.org/2000/svg">
<g clip-path="url(#clip0_803_60)">
<path d="M12 1C5.374 1 0 6.373 0 13C0 18.302 3.438 22.8 8.207 24.387C8.806 24.498 9 24.126 9 23.81V21.576C5.662 22.302 4.967 20.16 4.967 20.16C4.421 18.773 3.634 18.404 3.634 18.404C2.545 17.659 3.717 17.675 3.717 17.675C4.922 17.759 5.556 18.912 5.556 18.912C6.626 20.746 8.363 20.216 9.048 19.909C9.155 19.134 9.466 18.604 9.81 18.305C7.145 18 4.343 16.971 4.343 12.374C4.343 11.063 4.812 9.993 5.579 9.153C5.455 8.85 5.044 7.629 5.696 5.977C5.696 5.977 6.704 5.655 8.997 7.207C9.954 6.941 10.98 6.808 12 6.803C13.02 6.808 14.047 6.941 15.006 7.207C17.297 5.655 18.303 5.977 18.303 5.977C18.956 7.63 18.545 8.851 18.421 9.153C19.191 9.993 19.656 11.064 19.656 12.374C19.656 16.983 16.849 17.998 14.177 18.295C14.607 18.667 15 19.397 15 20.517V23.81C15 24.129 15.192 24.504 15.801 24.386C20.566 22.797 24 18.3 24 13C24 6.373 18.627 1 12 1Z" fill="#513203"/>
<path d="M12 0C5.374 0 0 5.373 0 12C0 17.302 3.438 21.8 8.207 23.387C8.806 23.498 9 23.126 9 22.81V20.576C5.662 21.302 4.967 19.16 4.967 19.16C4.421 17.773 3.634 17.404 3.634 17.404C2.545 16.659 3.717 16.675 3.717 16.675C4.922 16.759 5.556 17.912 5.556 17.912C6.626 19.746 8.363 19.216 9.048 18.909C9.155 18.134 9.466 17.604 9.81 17.305C7.145 17 4.343 15.971 4.343 11.374C4.343 10.063 4.812 8.993 5.579 8.153C5.455 7.85 5.044 6.629 5.696 4.977C5.696 4.977 6.704 4.655 8.997 6.207C9.954 5.941 10.98 5.808 12 5.803C13.02 5.808 14.047 5.941 15.006 6.207C17.297 4.655 18.303 4.977 18.303 4.977C18.956 6.63 18.545 7.851 18.421 8.153C19.191 8.993 19.656 10.064 19.656 11.374C19.656 15.983 16.849 16.998 14.177 17.295C14.607 17.667 15 18.397 15 19.517V22.81C15 23.129 15.192 23.504 15.801 23.386C20.566 21.797 24 17.3 24 12C24 5.373 18.627 0 12 0Z" fill="#2D2D2D"/>
</g>
<defs>
<clipPath id="clip0_803_60">
<rect width="24" height="24.408" fill="white"/>
</clipPath>
</defs>
</svg>
