<?xml version="1.0" encoding="UTF-8" standalone="no"?><!-- Generator: Gravit.io --><svg xmlns="http://www.w3.org/2000/svg" xmlns:xlink="http://www.w3.org/1999/xlink" style="isolation:isolate" viewBox="0 0 24 24.408" width="24pt" height="24.408pt"><g><path d=" M 12 1 C 5.374 1 0 6.373 0 13 C 0 18.302 3.438 22.8 8.207 24.387 C 8.806 24.498 9 24.126 9 23.81 L 9 21.576 C 5.662 22.302 4.967 20.16 4.967 20.16 C 4.421 18.773 3.634 18.404 3.634 18.404 C 2.545 17.659 3.717 17.675 3.717 17.675 C 4.922 17.759 5.556 18.912 5.556 18.912 C 6.626 20.746 8.363 20.216 9.048 19.909 C 9.155 19.134 9.466 18.604 9.81 18.305 C 7.145 18 4.343 16.971 4.343 12.374 C 4.343 11.063 4.812 9.993 5.579 9.153 C 5.455 8.85 5.044 7.629 5.696 5.977 C 5.696 5.977 6.704 5.655 8.997 7.207 C 9.954 6.941 10.98 6.808 12 6.803 C 13.02 6.808 14.047 6.941 15.006 7.207 C 17.297 5.655 18.303 5.977 18.303 5.977 C 18.956 7.63 18.545 8.851 18.421 9.153 C 19.191 9.993 19.656 11.064 19.656 12.374 C 19.656 16.983 16.849 17.998 14.177 18.295 C 14.607 18.667 15 19.397 15 20.517 L 15 23.81 C 15 24.129 15.192 24.504 15.801 24.386 C 20.566 22.797 24 18.3 24 13 C 24 6.373 18.627 1 12 1 Z " fill="rgb(128,0,128)"/><path d=" M 12 0 C 5.374 0 0 5.373 0 12 C 0 17.302 3.438 21.8 8.207 23.387 C 8.806 23.498 9 23.126 9 22.81 L 9 20.576 C 5.662 21.302 4.967 19.16 4.967 19.16 C 4.421 17.773 3.634 17.404 3.634 17.404 C 2.545 16.659 3.717 16.675 3.717 16.675 C 4.922 16.759 5.556 17.912 5.556 17.912 C 6.626 19.746 8.363 19.216 9.048 18.909 C 9.155 18.134 9.466 17.604 9.81 17.305 C 7.145 17 4.343 15.971 4.343 11.374 C 4.343 10.063 4.812 8.993 5.579 8.153 C 5.455 7.85 5.044 6.629 5.696 4.977 C 5.696 4.977 6.704 4.655 8.997 6.207 C 9.954 5.941 10.98 5.808 12 5.803 C 13.02 5.808 14.047 5.941 15.006 6.207 C 17.297 4.655 18.303 4.977 18.303 4.977 C 18.956 6.63 18.545 7.851 18.421 8.153 C 19.191 8.993 19.656 10.064 19.656 11.374 C 19.656 15.983 16.849 16.998 14.177 17.295 C 14.607 17.667 15 18.397 15 19.517 L 15 22.81 C 15 23.129 15.192 23.504 15.801 23.386 C 20.566 21.797 24 17.3 24 12 C 24 5.373 18.627 0 12 0 Z " fill="rgb(255,255,255)"/></g></svg>