<?xml version="1.0" encoding="UTF-8" standalone="no"?><!-- Generator: Gravit.io --><svg xmlns="http://www.w3.org/2000/svg" xmlns:xlink="http://www.w3.org/1999/xlink" style="isolation:isolate" viewBox="-29 -5.204 25 24.408" width="25pt" height="24.408pt"><g><path d=" M -16 -4.204 C -22.626 -4.204 -28 1.169 -28 7.796 C -28 13.098 -24.562 17.596 -19.793 19.183 C -19.194 19.294 -19 18.922 -19 18.606 L -19 16.372 C -22.338 17.098 -23.033 14.956 -23.033 14.956 C -23.579 13.569 -24.366 13.2 -24.366 13.2 C -25.455 12.455 -24.283 12.471 -24.283 12.471 C -23.078 12.555 -22.444 13.708 -22.444 13.708 C -21.374 15.542 -19.637 15.012 -18.952 14.705 C -18.845 13.93 -18.534 13.4 -18.19 13.101 C -20.855 12.796 -23.657 11.767 -23.657 7.17 C -23.657 5.859 -23.188 4.789 -22.421 3.949 C -22.545 3.646 -22.956 2.425 -22.304 0.773 C -22.304 0.773 -21.296 0.451 -19.003 2.003 C -18.046 1.737 -17.02 1.604 -16 1.599 C -14.98 1.604 -13.953 1.737 -12.994 2.003 C -10.703 0.451 -9.697 0.773 -9.697 0.773 C -9.044 2.426 -9.455 3.647 -9.579 3.949 C -8.809 4.789 -8.344 5.86 -8.344 7.17 C -8.344 11.779 -11.151 12.794 -13.823 13.091 C -13.393 13.463 -13 14.193 -13 15.313 L -13 18.606 C -13 18.925 -12.808 19.3 -12.199 19.182 C -7.434 17.593 -4 13.096 -4 7.796 C -4 1.169 -9.373 -4.204 -16 -4.204 Z " fill="rgb(128,0,128)"/><path d=" M -17 -5.204 C -23.626 -5.204 -29 0.169 -29 6.796 C -29 12.098 -25.562 16.596 -20.793 18.183 C -20.194 18.294 -20 17.922 -20 17.606 L -20 15.372 C -23.338 16.098 -24.033 13.956 -24.033 13.956 C -24.579 12.569 -25.366 12.2 -25.366 12.2 C -26.455 11.455 -25.283 11.471 -25.283 11.471 C -24.078 11.555 -23.444 12.708 -23.444 12.708 C -22.374 14.542 -20.637 14.012 -19.952 13.705 C -19.845 12.93 -19.534 12.4 -19.19 12.101 C -21.855 11.796 -24.657 10.767 -24.657 6.17 C -24.657 4.859 -24.188 3.789 -23.421 2.949 C -23.545 2.646 -23.956 1.425 -23.304 -0.227 C -23.304 -0.227 -22.296 -0.549 -20.003 1.003 C -19.046 0.737 -18.02 0.604 -17 0.599 C -15.98 0.604 -14.953 0.737 -13.994 1.003 C -11.703 -0.549 -10.697 -0.227 -10.697 -0.227 C -10.044 1.426 -10.455 2.647 -10.579 2.949 C -9.809 3.789 -9.344 4.86 -9.344 6.17 C -9.344 10.779 -12.151 11.794 -14.823 12.091 C -14.393 12.463 -14 13.193 -14 14.313 L -14 17.606 C -14 17.925 -13.808 18.3 -13.199 18.182 C -8.434 16.593 -5 12.096 -5 6.796 C -5 0.169 -10.373 -5.204 -17 -5.204 Z " fill="rgb(255,255,255)"/></g></svg>