<svg width="24" height="24" viewBox="0 0 24 24" fill="none" xmlns="http://www.w3.org/2000/svg">
<path d="M4.98 3.5C4.98 4.881 3.87 6 2.5 6C1.13 6 0.0200005 4.881 0.0200005 3.5C0.0200005 2.12 1.13 1 2.5 1C3.87 1 4.98 2.12 4.98 3.5ZM5 8H0V24H5V8ZM12.982 8H8.014V24H12.983V15.601C12.983 10.931 19.012 10.549 19.012 15.601V24H24V13.869C24 5.989 15.078 6.276 12.982 10.155V8Z" fill="#513203"/>
<path d="M4.98 2.5C4.98 3.881 3.87 5 2.5 5C1.13 5 0.0200005 3.881 0.0200005 2.5C0.0200005 1.12 1.13 0 2.5 0C3.87 0 4.98 1.12 4.98 2.5ZM5 7H0V23H5V7ZM12.982 7H8.014V23H12.983V14.601C12.983 9.931 19.012 9.549 19.012 14.601V23H24V12.869C24 4.989 15.078 5.276 12.982 9.155V7Z" fill="#2D2D2D"/>
</svg>
