<?xml version="1.0" encoding="UTF-8" standalone="no"?><!-- Generator: Gravit.io --><svg xmlns="http://www.w3.org/2000/svg" xmlns:xlink="http://www.w3.org/1999/xlink" style="isolation:isolate" viewBox="-13 29 25 24" width="25pt" height="24pt"><g><path d=" M -7.02 32.5 C -7.02 33.881 -8.13 35 -9.5 35 C -10.87 35 -11.98 33.881 -11.98 32.5 C -11.98 31.12 -10.87 30 -9.5 30 C -8.13 30 -7.02 31.12 -7.02 32.5 Z  M -7 37 L -12 37 L -12 53 L -7 53 L -7 37 Z  M 0.982 37 L -3.986 37 L -3.986 53 L 0.983 53 L 0.983 44.601 C 0.983 39.931 7.012 39.549 7.012 44.601 L 7.012 53 L 12 53 L 12 42.869 C 12 34.989 3.078 35.276 0.982 39.155 L 0.982 37 Z " fill="rgb(128,0,128)"/><path d=" M -8.02 31.5 C -8.02 32.881 -9.13 34 -10.5 34 C -11.87 34 -12.98 32.881 -12.98 31.5 C -12.98 30.12 -11.87 29 -10.5 29 C -9.13 29 -8.02 30.12 -8.02 31.5 Z  M -8 36 L -13 36 L -13 52 L -8 52 L -8 36 Z  M -0.018 36 L -4.986 36 L -4.986 52 L -0.017 52 L -0.017 43.601 C -0.017 38.931 6.012 38.549 6.012 43.601 L 6.012 52 L 11 52 L 11 41.869 C 11 33.989 2.078 34.276 -0.018 38.155 L -0.018 36 Z " fill="rgb(255,255,255)"/></g></svg>