<?xml version="1.0" encoding="UTF-8" standalone="no"?><!-- Generator: Gravit.io --><svg xmlns="http://www.w3.org/2000/svg" xmlns:xlink="http://www.w3.org/1999/xlink" style="isolation:isolate" viewBox="-45 25.5 24 24" width="24pt" height="24pt"><g><path d=" M -40.02 29 C -40.02 30.381 -41.13 31.5 -42.5 31.5 C -43.87 31.5 -44.98 30.381 -44.98 29 C -44.98 27.62 -43.87 26.5 -42.5 26.5 C -41.13 26.5 -40.02 27.62 -40.02 29 Z  M -40 33.5 L -45 33.5 L -45 49.5 L -40 49.5 L -40 33.5 Z  M -32.018 33.5 L -36.986 33.5 L -36.986 49.5 L -32.017 49.5 L -32.017 41.101 C -32.017 36.431 -25.988 36.049 -25.988 41.101 L -25.988 49.5 L -21 49.5 L -21 39.369 C -21 31.489 -29.922 31.776 -32.018 35.655 L -32.018 33.5 Z " fill="rgb(128,0,128)"/><path d=" M -40.02 28 C -40.02 29.381 -41.13 30.5 -42.5 30.5 C -43.87 30.5 -44.98 29.381 -44.98 28 C -44.98 26.62 -43.87 25.5 -42.5 25.5 C -41.13 25.5 -40.02 26.62 -40.02 28 Z  M -40 32.5 L -45 32.5 L -45 48.5 L -40 48.5 L -40 32.5 Z  M -32.018 32.5 L -36.986 32.5 L -36.986 48.5 L -32.017 48.5 L -32.017 40.101 C -32.017 35.431 -25.988 35.049 -25.988 40.101 L -25.988 48.5 L -21 48.5 L -21 38.369 C -21 30.489 -29.922 30.776 -32.018 34.655 L -32.018 32.5 Z " fill="rgb(255,255,255)"/></g></svg>