<svg width="100" height="100" viewBox="0 0 100 100" fill="none" xmlns="http://www.w3.org/2000/svg">
<rect width="100" height="100" rx="15" fill="#EFEFEF"/>
<rect x="3.84616" y="3.84615" width="92.3077" height="92.3077" rx="10" fill="black"/>
<path d="M25.0143 57.754C25.8263 56.246 26.9863 55.0667 28.4943 54.216C30.0409 53.3267 31.8776 52.882 34.0043 52.882C36.5563 52.882 38.8569 53.5587 40.9063 54.912C42.9556 56.2267 44.5603 58.16 45.7203 60.712C46.9189 63.2253 47.5183 66.2027 47.5183 69.644C47.5183 73.0853 46.9189 76.082 45.7203 78.634C44.5603 81.1473 42.9556 83.0807 40.9063 84.434C38.8569 85.7487 36.5563 86.406 34.0043 86.406C31.8776 86.406 30.0409 85.9807 28.4943 85.13C26.9863 84.2407 25.8263 83.042 25.0143 81.534V86H12.1383V43.08H25.0143V57.754ZM34.4683 69.644C34.4683 67.904 34.0236 66.5507 33.1343 65.584C32.2449 64.6173 31.1043 64.134 29.7123 64.134C28.3203 64.134 27.1796 64.6173 26.2903 65.584C25.4009 66.5507 24.9563 67.904 24.9563 69.644C24.9563 71.384 25.4009 72.7373 26.2903 73.704C27.1796 74.6707 28.3203 75.154 29.7123 75.154C31.1043 75.154 32.2449 74.6707 33.1343 73.704C34.0236 72.7373 34.4683 71.384 34.4683 69.644ZM49.5202 73.874C49.5202 71.3227 49.9502 69.1153 50.8102 67.252C51.6988 65.36 52.9028 63.9267 54.4222 62.952C55.9415 61.9487 57.6472 61.447 59.5392 61.447C61.1158 61.447 62.4632 61.7767 63.5812 62.436C64.7278 63.0667 65.6022 63.941 66.2042 65.059V54.18H75.7502V86H66.2042V82.689C65.6022 83.807 64.7278 84.6957 63.5812 85.355C62.4632 85.9857 61.1158 86.301 59.5392 86.301C57.6472 86.301 55.9415 85.8137 54.4222 84.839C52.9028 83.8357 51.6988 82.4023 50.8102 80.539C49.9502 78.647 49.5202 76.4253 49.5202 73.874ZM66.2472 73.874C66.2472 72.584 65.9175 71.5807 65.2582 70.864C64.5988 70.1473 63.7532 69.789 62.7212 69.789C61.6892 69.789 60.8435 70.1473 60.1842 70.864C59.5248 71.5807 59.1952 72.584 59.1952 73.874C59.1952 75.164 59.5248 76.1673 60.1842 76.884C60.8435 77.6007 61.6892 77.959 62.7212 77.959C63.7532 77.959 64.5988 77.6007 65.2582 76.884C65.9175 76.1673 66.2472 75.164 66.2472 73.874ZM83.8242 86.4318C82.7807 86.4318 81.8855 86.0675 81.1388 85.3388C80.4012 84.6011 80.0368 83.706 80.0458 82.6534C80.0368 81.6278 80.4012 80.7507 81.1388 80.022C81.8855 79.2933 82.7807 78.929 83.8242 78.929C84.8138 78.929 85.6864 79.2933 86.4421 80.022C87.2068 80.7507 87.5936 81.6278 87.6026 82.6534C87.5936 83.3551 87.4092 83.9938 87.0494 84.5696C86.6985 85.1364 86.2397 85.5907 85.6729 85.9325C85.1062 86.2654 84.4899 86.4318 83.8242 86.4318Z" fill="#EFEFEF"/>
</svg>
