<svg width="100" height="100" viewBox="0 0 100 100" fill="none" xmlns="http://www.w3.org/2000/svg">
<rect width="100" height="100" rx="1" fill="#EFEFEF"/>
<rect x="3.84616" y="3.84615" width="92.3077" height="92.3077" rx="2" fill="black"/>
<path d="M21.0258 65.65C21.7258 64.35 22.7258 63.3333 24.0258 62.6C25.3591 61.8333 26.9424 61.45 28.7758 61.45C30.9758 61.45 32.9591 62.0333 34.7258 63.2C36.4924 64.3333 37.8758 66 38.8758 68.2C39.9091 70.3667 40.4258 72.9333 40.4258 75.9C40.4258 78.8667 39.9091 81.45 38.8758 83.65C37.8758 85.8167 36.4924 87.4833 34.7258 88.65C32.9591 89.7833 30.9758 90.35 28.7758 90.35C26.9424 90.35 25.3591 89.9833 24.0258 89.25C22.7258 88.4833 21.7258 87.45 21.0258 86.15V90H9.92578V53H21.0258V65.65ZM29.1758 75.9C29.1758 74.4 28.7924 73.2333 28.0258 72.4C27.2591 71.5667 26.2758 71.15 25.0758 71.15C23.8758 71.15 22.8924 71.5667 22.1258 72.4C21.3591 73.2333 20.9758 74.4 20.9758 75.9C20.9758 77.4 21.3591 78.5667 22.1258 79.4C22.8924 80.2333 23.8758 80.65 25.0758 80.65C26.2758 80.65 27.2591 80.2333 28.0258 79.4C28.7924 78.5667 29.1758 77.4 29.1758 75.9ZM42.1102 80.13C42.1102 78.0533 42.4602 76.2567 43.1602 74.74C43.8835 73.2 44.8635 72.0333 46.1002 71.24C47.3368 70.4233 48.7252 70.015 50.2652 70.015C51.5485 70.015 52.6452 70.2833 53.5552 70.82C54.4885 71.3333 55.2002 72.045 55.6902 72.955V64.1H63.4602V90H55.6902V87.305C55.2002 88.215 54.4885 88.9383 53.5552 89.475C52.6452 89.9883 51.5485 90.245 50.2652 90.245C48.7252 90.245 47.3368 89.8483 46.1002 89.055C44.8635 88.2383 43.8835 87.0717 43.1602 85.555C42.4602 84.015 42.1102 82.2067 42.1102 80.13ZM55.7252 80.13C55.7252 79.08 55.4568 78.2633 54.9202 77.68C54.3835 77.0967 53.6952 76.805 52.8552 76.805C52.0152 76.805 51.3268 77.0967 50.7902 77.68C50.2535 78.2633 49.9852 79.08 49.9852 80.13C49.9852 81.18 50.2535 81.9967 50.7902 82.58C51.3268 83.1633 52.0152 83.455 52.8552 83.455C53.6952 83.455 54.3835 83.1633 54.9202 82.58C55.4568 81.9967 55.7252 81.18 55.7252 80.13ZM69.8867 90.3409C69.0629 90.3409 68.3562 90.0533 67.7667 89.478C67.1843 88.8956 66.8967 88.1889 66.9038 87.358C66.8967 86.5483 67.1843 85.8558 67.7667 85.2805C68.3562 84.7053 69.0629 84.4176 69.8867 84.4176C70.668 84.4176 71.3569 84.7053 71.9535 85.2805C72.5572 85.8558 72.8626 86.5483 72.8697 87.358C72.8626 87.9119 72.717 88.4162 72.4329 88.8707C72.1559 89.3182 71.7937 89.6768 71.3462 89.9467C70.8988 90.2095 70.4123 90.3409 69.8867 90.3409Z" fill="#EFEFEF"/>
</svg>
