<svg width="100" height="100" viewBox="0 0 100 100" fill="none" xmlns="http://www.w3.org/2000/svg">
<circle cx="50" cy="50" r="50" fill="#EFEFEF"/>
<path d="M33.5581 42.676C34.2861 41.324 35.3261 40.2667 36.6781 39.504C38.0647 38.7067 39.7114 38.308 41.6181 38.308C43.9061 38.308 45.9687 38.9147 47.8061 40.128C49.6434 41.3067 51.0821 43.04 52.1221 45.328C53.1967 47.5813 53.7341 50.2507 53.7341 53.336C53.7341 56.4213 53.1967 59.108 52.1221 61.396C51.0821 63.6493 49.6434 65.3827 47.8061 66.596C45.9687 67.7747 43.9061 68.364 41.6181 68.364C39.7114 68.364 38.0647 67.9827 36.6781 67.22C35.3261 66.4227 34.2861 65.348 33.5581 63.996V68H22.0141V29.52H33.5581V42.676ZM42.0341 53.336C42.0341 51.776 41.6354 50.5627 40.8381 49.696C40.0407 48.8293 39.0181 48.396 37.7701 48.396C36.5221 48.396 35.4994 48.8293 34.7021 49.696C33.9047 50.5627 33.5061 51.776 33.5061 53.336C33.5061 54.896 33.9047 56.1093 34.7021 56.976C35.4994 57.8427 36.5221 58.276 37.7701 58.276C39.0181 58.276 40.0407 57.8427 40.8381 56.976C41.6354 56.1093 42.0341 54.896 42.0341 53.336ZM55.5178 57.284C55.5178 55.0293 55.8978 53.0787 56.6578 51.432C57.4431 49.76 58.5071 48.4933 59.8498 47.632C61.1925 46.7453 62.6998 46.302 64.3718 46.302C65.7651 46.302 66.9558 46.5933 67.9438 47.176C68.9571 47.7333 69.7298 48.506 70.2618 49.494V39.88H78.6978V68H70.2618V65.074C69.7298 66.062 68.9571 66.8473 67.9438 67.43C66.9558 67.9873 65.7651 68.266 64.3718 68.266C62.6998 68.266 61.1925 67.8353 59.8498 66.974C58.5071 66.0873 57.4431 64.8207 56.6578 63.174C55.8978 61.502 55.5178 59.5387 55.5178 57.284ZM70.2998 57.284C70.2998 56.144 70.0085 55.2573 69.4258 54.624C68.8431 53.9907 68.0958 53.674 67.1838 53.674C66.2718 53.674 65.5245 53.9907 64.9418 54.624C64.3591 55.2573 64.0678 56.144 64.0678 57.284C64.0678 58.424 64.3591 59.3107 64.9418 59.944C65.5245 60.5773 66.2718 60.894 67.1838 60.894C68.0958 60.894 68.8431 60.5773 69.4258 59.944C70.0085 59.3107 70.2998 58.424 70.2998 57.284Z" fill="black"/>
</svg>
