<svg width="120" height="120" viewBox="0 0 120 120" fill="none" xmlns="http://www.w3.org/2000/svg">
<path d="M43.4476 90.5198C43.4476 90.9334 42.9839 91.2643 42.3992 91.2643C41.7339 91.3263 41.2702 90.9954 41.2702 90.5198C41.2702 90.1063 41.7339 89.7754 42.3185 89.7754C42.9234 89.7134 43.4476 90.0443 43.4476 90.5198ZM37.1774 89.5893C37.0363 90.0029 37.4395 90.4785 38.0444 90.6026C38.5686 90.8093 39.1734 90.6026 39.2944 90.189C39.4153 89.7754 39.0323 89.2999 38.4274 89.1137C37.9032 88.969 37.3185 89.1758 37.1774 89.5893ZM46.0887 89.2378C45.504 89.3826 45.1008 89.7754 45.1613 90.251C45.2218 90.6646 45.746 90.9334 46.3508 90.7887C46.9355 90.6439 47.3387 90.251 47.2782 89.8375C47.2177 89.4446 46.6734 89.1758 46.0887 89.2378ZM59.3548 10C31.3911 10 10 31.7739 10 60.4541C10 83.386 24.0726 103.009 44.1734 109.916C46.754 110.391 47.6613 108.758 47.6613 107.414C47.6613 106.132 47.6008 99.0598 47.6008 94.7175C47.6008 94.7175 33.4879 97.8192 30.5242 88.5554C30.5242 88.5554 28.2258 82.5382 24.9194 80.9873C24.9194 80.9873 20.3024 77.7409 25.2419 77.8029C25.2419 77.8029 30.2621 78.2165 33.0242 83.1378C37.4395 91.1195 44.8387 88.8243 47.7218 87.4595C48.1855 84.151 49.496 81.8558 50.9476 80.4911C39.6774 79.209 28.3065 77.5341 28.3065 57.6419C28.3065 51.9555 29.8387 49.102 33.0645 45.4626C32.5403 44.1186 30.8266 38.5769 33.5887 31.4223C37.8024 30.0783 47.5 37.0054 47.5 37.0054C51.5323 35.8474 55.8669 35.2478 60.1613 35.2478C64.4556 35.2478 68.7903 35.8474 72.8226 37.0054C72.8226 37.0054 82.5202 30.0576 86.7339 31.4223C89.496 38.5976 87.7823 44.1186 87.2581 45.4626C90.4839 49.1226 92.4597 51.9762 92.4597 57.6419C92.4597 77.5961 80.5847 79.1883 69.3145 80.4911C71.1694 82.1246 72.7419 85.2263 72.7419 90.0856C72.7419 97.0541 72.6814 105.677 72.6814 107.372C72.6814 108.716 73.6089 110.35 76.1693 109.874C96.3306 103.009 110 83.386 110 60.4541C110 31.7739 87.3185 10 59.3548 10ZM29.5968 81.3182C29.3347 81.5249 29.3952 82.0005 29.7379 82.3934C30.0605 82.7243 30.5242 82.869 30.7863 82.6002C31.0484 82.3934 30.9879 81.9178 30.6452 81.5249C30.3226 81.1941 29.8589 81.0494 29.5968 81.3182ZM27.4194 79.6433C27.2782 79.9121 27.4798 80.2429 27.8831 80.4497C28.2056 80.6565 28.6089 80.5944 28.75 80.305C28.8911 80.0361 28.6895 79.7053 28.2863 79.4985C27.8831 79.3744 27.5605 79.4365 27.4194 79.6433ZM33.9516 87.0046C33.629 87.2734 33.75 87.8938 34.2137 88.2866C34.6774 88.7622 35.2621 88.8243 35.5242 88.4934C35.7863 88.2246 35.6653 87.6043 35.2621 87.2114C34.8185 86.7358 34.2137 86.6738 33.9516 87.0046ZM31.6532 83.9649C31.3306 84.1717 31.3306 84.7094 31.6532 85.1849C31.9758 85.6605 32.5202 85.8673 32.7823 85.6605C33.1048 85.3917 33.1048 84.8541 32.7823 84.3785C32.5 83.9029 31.9758 83.6961 31.6532 83.9649Z" fill="white"/>
</svg>
