<svg width="120" height="120" viewBox="0 0 120 120" fill="none" xmlns="http://www.w3.org/2000/svg">
<path d="M32.3839 109.998H11.6518V43.2344H32.3839V109.998ZM22.0067 34.1272C15.3772 34.1272 10 28.6362 10 22.0067C10 18.8223 11.265 15.7684 13.5167 13.5167C15.7684 11.265 18.8223 10 22.0067 10C25.1911 10 28.245 11.265 30.4967 13.5167C32.7484 15.7684 34.0134 18.8223 34.0134 22.0067C34.0134 28.6362 28.6339 34.1272 22.0067 34.1272ZM109.978 109.998H89.2902V77.4978C89.2902 69.7522 89.1339 59.8192 78.5112 59.8192C67.7321 59.8192 66.0804 68.2344 66.0804 76.9397V109.998H45.3705V43.2344H65.2545V52.3415H65.5446C68.3125 47.096 75.0737 41.5603 85.1607 41.5603C106.143 41.5603 110 55.3772 110 73.3237V109.998H109.978Z" fill="#0B65C2"/>
</svg>
